<svg xmlns="http://www.w3.org/2000/svg" width="16.883" height="29.449" viewBox="0 0 16.883 29.449">
  <g id="Group_81" data-name="Group 81" transform="translate(-236.282 -400.852)">
    <path id="Icon_awesome-exchange-alt" data-name="Icon awesome-exchange-alt" d="M0,6.219V5.893A.489.489,0,0,1,.489,5.4H7.826V4.425a.49.49,0,0,1,.835-.346L10.292,5.71a.489.489,0,0,1,0,.692L8.661,8.032a.489.489,0,0,1-.835-.346V6.708H.489A.489.489,0,0,1,0,6.219Zm9.946,3.1H2.609V8.339a.49.49,0,0,0-.835-.346L.143,9.623a.489.489,0,0,0,0,.692l1.631,1.631a.489.489,0,0,0,.835-.346v-.978H9.946a.489.489,0,0,0,.489-.489V9.806A.489.489,0,0,0,9.946,9.317Z" transform="translate(239.506 418.212)" fill="#048eff"/>
    <path id="Icon_awesome-user" data-name="Icon awesome-user" d="M8.442,9.648A4.824,4.824,0,1,0,3.618,4.824,4.823,4.823,0,0,0,8.442,9.648Zm3.377,1.206h-.629a6.56,6.56,0,0,1-5.495,0H5.065A5.066,5.066,0,0,0,0,15.918v1.568A1.809,1.809,0,0,0,1.809,19.3H15.074a1.809,1.809,0,0,0,1.809-1.809V15.918A5.066,5.066,0,0,0,11.818,10.854Z" transform="translate(236.282 400.852)" fill="#048eff"/>
  </g>
</svg>
