<?xml version="1.0" standalone="no"?>
<!DOCTYPE svg PUBLIC "-//W3C//DTD SVG 20010904//EN"
 "http://www.w3.org/TR/2001/REC-SVG-20010904/DTD/svg10.dtd">
<svg version="1.0" xmlns="http://www.w3.org/2000/svg"
 width="300.000000pt" height="300.000000pt" viewBox="0 0 300.000000 300.000000"
 preserveAspectRatio="xMidYMid meet">
<metadata>
Created by potrace 1.16, written by Peter Selinger 2001-2019
</metadata>
<g transform="translate(0.000000,300.000000) scale(0.100000,-0.100000)"
stroke="none">
<path d="M1162 2740 c-273 -73 -480 -296 -539 -578 -21 -103 -13 -270 17 -367
83 -263 280 -451 540 -516 79 -20 278 -17 359 5 252 69 468 285 537 537 24 87
25 289 1 379 -31 117 -93 224 -185 322 -98 102 -191 164 -307 204 -109 38
-311 44 -423 14z"/>
<path d="M2537 2153 c-4 -3 -7 -72 -7 -152 l0 -146 -140 3 -140 3 0 -95 0 -96
140 0 140 0 0 -150 0 -150 95 0 95 0 0 150 0 150 140 0 140 0 0 96 0 95 -140
-3 -140 -3 0 153 0 152 -88 0 c-49 0 -92 -3 -95 -7z"/>
<path d="M542 1385 c-189 -41 -320 -154 -418 -360 -67 -140 -94 -255 -94 -400
0 -134 15 -209 58 -295 35 -70 122 -138 219 -171 l68 -24 980 0 980 0 57 22
c74 28 162 86 194 129 36 47 74 162 87 265 13 105 2 192 -45 339 -98 310 -282
484 -534 505 l-69 6 -110 -71 c-129 -84 -196 -119 -285 -150 -193 -66 -366
-66 -560 0 -93 32 -149 62 -274 146 -122 82 -133 85 -254 59z"/>
</g>
</svg>
